<svg xmlns="http://www.w3.org/2000/svg" xmlns:xlink="http://www.w3.org/1999/xlink" viewBox="0 0 499.44 174.28"><defs><style>.cls-1{fill:url(#linear-gradient);}.cls-2{fill:url(#linear-gradient-2);}.cls-3{fill:url(#linear-gradient-3);}.cls-4{fill:url(#linear-gradient-4);}.cls-5{fill:url(#linear-gradient-5);}.cls-6{fill:url(#linear-gradient-6);}.cls-7{fill:url(#linear-gradient-7);}.cls-8{fill:url(#linear-gradient-8);}.cls-9{fill:url(#linear-gradient-9);}.cls-10{fill:url(#linear-gradient-10);}.cls-11{fill:url(#linear-gradient-11);}.cls-12{fill:url(#linear-gradient-12);}.cls-13{fill:url(#linear-gradient-13);}.cls-14{fill:#0c0c0c;}.cls-15{opacity:0.1;}</style><linearGradient id="linear-gradient" x1="-11.98" y1="-272.03" x2="35.09" y2="188.04" gradientUnits="userSpaceOnUse"><stop offset="0" stop-color="#f7eb20"/><stop offset="1" stop-color="#f59121"/></linearGradient><linearGradient id="linear-gradient-2" x1="25.84" y1="-275.9" x2="72.91" y2="184.17" xlink:href="#linear-gradient"/><linearGradient id="linear-gradient-3" x1="14.36" y1="4.7" x2="127.07" y2="219.89" gradientUnits="userSpaceOnUse"><stop offset="0" stop-color="#2aa7df"/><stop offset="1" stop-color="#3953a2"/></linearGradient><linearGradient id="linear-gradient-4" x1="973.34" y1="148.15" x2="1086.06" y2="363.34" gradientTransform="translate(-910.83 57.94) rotate(-13.34)" xlink:href="#linear-gradient-3"/><linearGradient id="linear-gradient-5" x1="89.53" y1="-282.41" x2="136.6" y2="177.65" xlink:href="#linear-gradient"/><linearGradient id="linear-gradient-6" x1="-251.99" y1="-59.12" x2="-139.27" y2="156.07" gradientTransform="matrix(1, 0.1, -0.1, 1, 382.73, 24.08)" xlink:href="#linear-gradient-3"/><linearGradient id="linear-gradient-7" x1="161" y1="-289.73" x2="208.07" y2="170.34" xlink:href="#linear-gradient"/><linearGradient id="linear-gradient-8" x1="22.07" y1="-91.85" x2="134.79" y2="123.33" gradientTransform="translate(179.93 -5.12) rotate(2.64)" xlink:href="#linear-gradient-3"/><linearGradient id="linear-gradient-9" x1="241.54" y1="-297.97" x2="288.61" y2="162.1" xlink:href="#linear-gradient"/><linearGradient id="linear-gradient-10" x1="325.81" y1="-306.59" x2="372.88" y2="153.48" xlink:href="#linear-gradient"/><linearGradient id="linear-gradient-11" x1="797.32" y1="-109.39" x2="910.03" y2="105.79" gradientTransform="translate(-518.71 95.57) rotate(-7.74)" xlink:href="#linear-gradient-3"/><linearGradient id="linear-gradient-12" x1="420.1" y1="-316.23" x2="467.17" y2="143.83" xlink:href="#linear-gradient"/><linearGradient id="linear-gradient-13" x1="1028.8" y1="-143.52" x2="1141.52" y2="71.66" gradientTransform="translate(-677.62 178.19) rotate(-10.25)" xlink:href="#linear-gradient-3"/></defs><title>logo</title><g id="Layer_2" data-name="Layer 2"><g id="Layer_1-2" data-name="Layer 1"><polygon class="cls-1" points="11.84 95.79 37.34 95.79 37.34 74.93 11.84 78.64 11.84 95.79"/><path class="cls-2" d="M72.12,69.87,37.39,74.93h8.13L60.79,95.79H87.92V92.92L71.42,70.29Z"/><path class="cls-3" d="M74.06,35.46C73.51,15.29,59.7,4.34,35.71,5L0,6,1.82,72l25.39-4.41h.05l34.58-6C70,56.24,74.4,47.53,74.06,35.46ZM38.5,46.94l-11.86.33-.57-20.72,10.5-.29C44.34,26,48.8,29.61,49,36.15S45.46,46.75,38.5,46.94Z"/><polygon class="cls-4" points="142.28 32.32 110.26 35.53 109.2 24.95 146.91 21.16 144.79 0 81.97 6.3 87.36 59.96 143.64 45.92 142.28 32.32"/><polygon class="cls-5" points="120.24 64.43 152.42 64.43 152.42 58.19 95.02 66.54 95.02 95.79 159.24 95.79 159.24 74.38 120.24 74.38 120.24 64.43"/><polygon class="cls-6" points="182.77 2.96 157.39 5.45 161.62 48.46 186.63 42.27 182.77 2.96"/><polygon class="cls-7" points="194.15 52.11 168.65 55.82 168.65 95.79 229.87 95.79 229.87 72.61 194.15 72.61 194.15 52.11"/><path class="cls-8" d="M267,25.83c4.91-.33,9,.79,12.09,3.41l27.13-5.85C299,8.94,284.71,1.8,265.47,3.11,241.61,4.73,227,18.2,225.53,40.8L253,34.88C255.43,29.28,260.32,26.28,267,25.83Z"/><path class="cls-9" d="M289.43,38.25c3.45,3.36,5.35,8.75,5.35,16.23,0,13.23-6.41,19.77-17.18,19.77s-17.18-6.54-17.18-19.77c0-5.09.9-9.2,2.56-12.38l-27.78,4a62.75,62.75,0,0,0-.54,8.33c0,27.27,16.23,42.54,43,42.54s43-15.27,43-42.54a52.45,52.45,0,0,0-3.65-20.22Z"/><path class="cls-10" d="M343.2,30.42,319.73,95.79h27l4-12.41h32.59l4.09,12.41h26.86L388.39,23.84ZM357.77,61.7l6.68-19.91c1.09-3.41,1.91-6.27,2.45-8.73.68,2.45,1.36,5.32,2.59,8.73L376,61.7Z"/><polygon class="cls-11" points="372.99 5.43 338.26 7.02 332.69 25.1 377.54 16.47 372.99 5.43"/><path class="cls-12" d="M462,13.13l-41.51,6V95.79h32.45c29.72,0,46.5-15,46.5-41.59C499.44,30.45,486.05,16,462,13.13Zm-9.06,61h-7v-40h7c13.23,0,20.73,7.23,20.73,20S466.17,74.11,452.95,74.11Z"/><path class="cls-13" d="M441.87,5.2,409.51,7.7l.51,6.54L450.94,5A77.55,77.55,0,0,0,441.87,5.2Z"/><path class="cls-14" d="M129.11,150h26v3.29h-26v20.44h-3.48v-45.2H156V132H129.11Z"/><path class="cls-14" d="M199.72,173.7h-4.58l-15.61-17.09H167.22V173.7h-3.48V128.56H183.6c9.8,0,14.77,7,14.83,14.06.06,7.35-4.77,13.8-14.64,13.8Zm-32.5-20.38h16c7.87,0,11.35-4.45,11.41-10.77.06-5.29-3.55-10.77-11-10.77H167.22Z"/><path class="cls-14" d="M208.94,149.39h26.44v3.16H208.94v17.8h28.5v3.35H205.52V128.56h31.15v3.29H208.94Z"/><path class="cls-14" d="M245.18,173.7V128.56h3.42V173.7Z"/><path class="cls-14" d="M294.06,136.88a21,21,0,0,0-14.51-5.8c-13.22,0-20,9.67-19.93,20.12,0,10.64,6.77,19.8,19.93,19.8a20.35,20.35,0,0,0,13.74-5.22V153.13H277.55v-3h19V167a23.31,23.31,0,0,1-17,7.29c-15.35,0-23.28-10.7-23.28-23-.06-14.12,9.54-23.34,23.28-23.34a23.5,23.5,0,0,1,16.51,6.77Z"/><path class="cls-14" d="M338.3,173.7V153.19H309.54V173.7h-3.48V128.56h3.48V150H338.3V128.56h3.48V173.7Z"/><path class="cls-14" d="M364.55,131.72H348.23v-3.1h36.11v3.1H368v42h-3.48Z"/><path class="cls-15" d="M11.87,78.35,466.13,12.7s6.67,1.84,8.51,3.68L11.06,82.61Z"/></g></g></svg>