<svg id="vacancyBg" data-name="Layer 1" xmlns="http://www.w3.org/2000/svg" xmlns:xlink="http://www.w3.org/1999/xlink" viewBox="0 0 1920 900.72"><defs><style>.cls-1{fill:url(#linear-gradient);}.cls-2{fill:url(#linear-gradient-2);}</style><linearGradient id="linear-gradient" x1="580.92" y1="132.99" x2="1054.52" y2="1061.23" gradientUnits="userSpaceOnUse"><stop offset="0" stop-color="#f6ec1b"/><stop offset="1" stop-color="#f59222"/></linearGradient><linearGradient id="linear-gradient-2" x1="-7999.95" y1="-306.96" x2="-7418" y2="1303.11" gradientTransform="matrix(-1, 0, 0, 1, -6753.08, 0)" gradientUnits="userSpaceOnUse"><stop offset="0" stop-color="#2ca6df"/><stop offset="1" stop-color="#3a54a2"/></linearGradient></defs><title>Untitled-1</title><path class="cls-1" d="M745,311.46S923.59,297,880.3,401.6s-64.94,156.95-12.63,184,97.41,61.34,74,117.26S898.34,829.14,745,827.34Z"/><path class="cls-2" d="M0,900.72H1920v-828L1656.45,14.44a612.53,612.53,0,0,0-268.69.95h0A2281.42,2281.42,0,0,1,879.55,72.72H843.8a1157.26,1157.26,0,0,1-139.39-8.43h0A2655,2655,0,0,0,36.05,67.94L0,72.72Z"/></svg>